<svg xmlns="http://www.w3.org/2000/svg" width="72.369" height="16" viewBox="0 0 72.369 16">
  <path id="icon_by-songkick-wordmark" data-name="icon/by-songkick-wordmark" d="M39.218,16V14.017l.806-.005a1.243,1.243,0,0,0,1.352-1.4v-.862a2.624,2.624,0,0,1-1.174.272,3.381,3.381,0,0,1-2.51-1.015c-.915-.914-.914-2.132-.913-3.421V7.281c0-1.29,0-2.509.913-3.423A3.378,3.378,0,0,1,40.2,2.843a3.691,3.691,0,0,1,2.226.713,2.943,2.943,0,0,1,1.178,2.4l.008,6.665c0,2.2-1.18,3.368-3.413,3.383ZM39.4,5.213c-.2.263-.343.577-.343,2.232s.142,1.97.343,2.232a1.074,1.074,0,0,0,.875.381,1.117,1.117,0,0,0,1.146-.938V5.771a1.117,1.117,0,0,0-1.146-.938A1.077,1.077,0,0,0,39.4,5.213Zm-33.61,8.54c-.092-.014-.185-.024-.286-.031l.125-.529a4.963,4.963,0,0,0,.55.031.739.739,0,0,0,.509-.187,1.726,1.726,0,0,0,.332-.395L7.5,11.8,6.517,6.448H7.2l.767,4.546H7.99l2.47-4.546h.706l-3.808,6.61a1.4,1.4,0,0,1-1.3.716A1.835,1.835,0,0,1,5.785,13.754Zm52.517-2.6c-.914-.915-.913-2.135-.912-3.427v-.3c0-1.291,0-2.51.912-3.425a3.378,3.378,0,0,1,2.51-1.015,3.489,3.489,0,0,1,2.23.724,3.474,3.474,0,0,1,1.193,2.218H61.98a1.1,1.1,0,0,0-1.154-.964,1.078,1.078,0,0,0-.875.38c-.2.263-.342.577-.342,2.231s.142,1.97.342,2.233a1.076,1.076,0,0,0,.875.381,1.127,1.127,0,0,0,1.154-.964h2.257a3.472,3.472,0,0,1-1.193,2.217,3.49,3.49,0,0,1-2.23.725A3.38,3.38,0,0,1,58.3,11.152ZM22.2,11.009c-.916-.914-.914-2.132-.913-3.422V7.281c0-1.29,0-2.509.913-3.424A3.311,3.311,0,0,1,24.72,2.843a3.313,3.313,0,0,1,2.524,1.015c.915.915.914,2.132.913,3.421v.307c0,1.291,0,2.51-.913,3.424a3.314,3.314,0,0,1-2.524,1.015A3.311,3.311,0,0,1,22.2,11.009Zm1.549-5.783c-.2.262-.33.557-.33,2.219s.131,1.946.33,2.208a1.175,1.175,0,0,0,1.775,0c.2-.261.329-.556.329-2.208s-.13-1.957-.329-2.219a1.2,1.2,0,0,0-1.775,0ZM13.608,10.832l1.42-1.42a3.042,3.042,0,0,0,2.015.634c.859,0,1.294-.273,1.294-.811A.757.757,0,0,0,18.16,8.7a1.01,1.01,0,0,0-.6-.241l-1.09-.152a3.063,3.063,0,0,1-1.813-.8A2.5,2.5,0,0,1,14.039,5.7a2.66,2.66,0,0,1,.878-2.045,3.555,3.555,0,0,1,2.418-.809,3.977,3.977,0,0,1,3.043,1.078L18.984,5.315a2.062,2.062,0,0,0-1.558-.533h-.154c-.753,0-1.09.42-1.09.836a.589.589,0,0,0,.178.419,1.027,1.027,0,0,0,.621.266l1.09.152a3.057,3.057,0,0,1,1.775.748,2.624,2.624,0,0,1,.671,1.979,2.551,2.551,0,0,1-1.03,2.11,4.081,4.081,0,0,1-2.456.73A4.36,4.36,0,0,1,13.608,10.832Zm34.97,0c-.358-.57-1.491-2.35-1.619-2.552v3.715H44.739V.284h2.219v6.1L49.386,3h2.656L48.983,7.263c0,.005.715,1.142,1.123,1.792a1.533,1.533,0,0,0,1.465.854h.422V12l-.649,0A2.835,2.835,0,0,1,48.578,10.831Zm4.985.261A3.456,3.456,0,0,1,52.7,8.575l0-5.59h2.256V8.5A1.3,1.3,0,0,0,56.323,9.89h.26v2.1l-.469,0A3.47,3.47,0,0,1,53.564,11.092Zm-52.08.5a1.6,1.6,0,0,1-.623-1.017H.841L.581,11.8H0L1.567,4.394h.653l-.633,3h.021a2.231,2.231,0,0,1,.752-.8,2,2,0,0,1,1.094-.3,2.178,2.178,0,0,1,.9.171,1.809,1.809,0,0,1,.633.467,1.93,1.93,0,0,1,.379.706,3.037,3.037,0,0,1,.125.887A4.215,4.215,0,0,1,5.3,9.748a3.654,3.654,0,0,1-.545,1.1,2.886,2.886,0,0,1-.887.794,2.389,2.389,0,0,1-1.214.307A1.956,1.956,0,0,1,1.484,11.6ZM2.35,7.133a2.545,2.545,0,0,0-.685.727,3.493,3.493,0,0,0-.415.949,3.693,3.693,0,0,0-.14.97,2.225,2.225,0,0,0,.088.638,1.428,1.428,0,0,0,.269.514,1.326,1.326,0,0,0,.457.347,1.52,1.52,0,0,0,.649.13,1.786,1.786,0,0,0,.981-.269,2.468,2.468,0,0,0,.706-.69,3.189,3.189,0,0,0,.43-.94A3.715,3.715,0,0,0,4.835,8.5a1.885,1.885,0,0,0-.363-1.2A1.414,1.414,0,0,0,3.3,6.843,1.609,1.609,0,0,0,2.35,7.133Zm28.826,4.814H28.961V6.739a3.724,3.724,0,0,1,.913-2.882,3.644,3.644,0,0,1,5.046,0,3.622,3.622,0,0,1,.913,2.879v.1l-.005,5.111-2.218,0,0-5.1c0-1.164-.119-1.32-.317-1.578l-.013-.017a1.14,1.14,0,0,0-1.775,0c-.2.26-.33.431-.33,1.589l0,5.113h0Zm37.729-1.4C68.548,9.977,67.415,8.2,67.286,8V11.71H65.066V0h2.219V6.1l2.428-3.381h2.656L69.311,6.979s.7,1.114,1.123,1.791a1.539,1.539,0,0,0,1.465.854h.422v2.093l-.649,0A2.835,2.835,0,0,1,68.906,10.547ZM55.052,1.9l-2.21,0V.284h2.211V1.9h0Z" fill="#455a64"/>
</svg>
